<svg width="44" height="34" viewBox="0 0 44 34" fill="none" xmlns="http://www.w3.org/2000/svg">
<path fill-rule="evenodd" clip-rule="evenodd" d="M19 0.5C12.3726 0.5 7 5.87258 7 12.5C7 12.8337 7.01366 13.1645 7.04048 13.4918C3.47254 15.1681 1 18.7937 1 23C1 28.799 5.70101 33.5 11.5 33.5H34C38.9706 33.5 43 29.4706 43 24.5C43 21.1305 41.1489 18.1963 38.4116 16.654C38.4698 16.2773 38.5 15.8918 38.5 15.5C38.5 11.3579 35.1421 8 31 8C30.7118 8 30.427 8.01633 30.1466 8.04816C28.3786 3.62564 24.0559 0.5 19 0.5ZM23.5 12.5C23.5 11.6716 22.8284 11 22 11C21.1716 11 20.5 11.6716 20.5 12.5V22.3787L17.0607 18.9393C16.4749 18.3536 15.5251 18.3536 14.9393 18.9393C14.3536 19.5251 14.3536 20.4749 14.9393 21.0607L20.9393 27.0607C21.5251 27.6464 22.4749 27.6464 23.0607 27.0607L29.0607 21.0607C29.6464 20.4749 29.6464 19.5251 29.0607 18.9393C28.4749 18.3536 27.5251 18.3536 26.9393 18.9393L23.5 22.3787V12.5Z" fill="#0F172A" stroke="black" stroke-linejoin="round"/>
</svg>
